<svg width="254" height="254" viewBox="0 0 254 254" fill="none" xmlns="http://www.w3.org/2000/svg">
<path d="M105.501 95.0037C101.809 98.0923 90.371 100.264 79.6332 127.362L63.828 113.149C56.5326 116.851 50.88 123.141 47.9746 130.788L71.7427 152.146C74.4959 154.611 78.1145 155.884 81.8047 155.684C85.4949 155.486 88.9556 153.831 91.4277 151.084L101.277 140.12L97.3636 166.069L81.3413 183.925C85.3615 190.984 91.5578 196.553 99.0045 199.8L115.968 180.931C118.479 178.138 120.254 174.762 121.132 171.11C124.824 155.616 123.569 128.279 125.958 104.728C116.383 102.942 112.836 100.771 105.501 95.0037Z" fill="#0AA89E"/>
<path d="M236.266 96.0895L208.758 125.118L219.665 77.0992L247.173 48.0708L236.266 96.0895Z" fill="#E9E9E9"/>
<path d="M149.056 85.4482C148.694 85.2069 148.067 85.424 147.246 86.0032L149.151 87.5716C149.466 86.4616 149.466 85.6895 149.056 85.4482Z" fill="#E9E9E9"/>
<path d="M132.02 100.288C131.512 101.591 131.579 102.686 131.972 102.942C132.364 103.199 133.496 102.942 134.258 101.953L132.02 100.288Z" fill="#E9E9E9"/>
<path d="M143.003 86.5099C142.641 86.2686 142.014 86.4858 141.193 87.0649L143.098 88.6334C143.41 87.5475 143.384 86.7754 143.003 86.5099Z" fill="#E9E9E9"/>
<path d="M86.5586 177.987L81.2246 183.923C85.2448 190.981 91.4411 196.55 98.8878 199.798L104.462 193.596C97.1324 190.199 90.9223 184.785 86.5586 177.987Z" fill="#E9E9E9"/>
<path d="M117.252 90.4673L126.18 104.342L128.545 100.047L117.252 90.4673Z" fill="#E9E9E9"/>
<path d="M126.396 55.4788L127.627 58.1331L128.303 56.3233L126.396 55.4788Z" fill="#E9E9E9"/>
<path d="M120.003 119.278L101.254 140.127L99.3477 152.916L120.003 119.278Z" fill="#E9E9E9"/>
<path d="M74.4459 199.462C72.8774 201.152 71.2607 202.841 69.5957 204.578C68.2686 212.42 68.896 230.421 71.4296 238.794C78.1606 227.598 80.599 220.506 84.0026 208.97C80.3359 206.324 77.1104 203.115 74.4459 199.462Z" fill="#E9E9E9"/>
<path d="M47.8794 106.924C46.7211 105.765 45.394 104.342 43.6325 102.436C29.9724 104.366 14.9406 108.927 8.57031 111.943C18.2866 115.617 28.6945 117.1 39.0503 116.286L39.5812 116.769C41.8588 113.105 44.6537 109.789 47.8794 106.924Z" fill="#E9E9E9"/>
<path d="M69.0409 117.71L63.8339 113.011C56.544 116.72 50.8935 123.007 47.9805 130.65L53.2649 135.404C56.9209 128.251 62.3532 122.159 69.0409 117.71Z" fill="#E9E9E9"/>
<path d="M137.015 39.77C137.118 39.1855 137.009 38.5834 136.708 38.0715C136.408 37.5597 135.934 37.1715 135.374 36.976C135.735 36.6427 135.99 36.2111 136.11 35.7344C136.229 35.2577 136.206 34.7567 136.044 34.2928C135.882 33.829 135.588 33.4225 135.199 33.1232C134.809 32.824 134.34 32.6451 133.85 32.6085C134.05 32.1832 134.128 31.7108 134.075 31.2438C134.023 30.7768 133.841 30.3336 133.552 29.9635C133.262 29.5934 132.876 29.3108 132.435 29.1474C131.995 28.9838 131.517 28.9457 131.056 29.0373C131.116 28.569 131.042 28.0934 130.844 27.6648C130.646 27.2362 130.332 26.8717 129.937 26.6127C129.542 26.3538 129.083 26.2109 128.611 26.2001C128.139 26.1893 127.674 26.3112 127.268 26.5519C127.181 26.0709 126.959 25.6249 126.626 25.2674C126.293 24.9099 125.863 24.6562 125.39 24.5364C124.916 24.4166 124.418 24.4362 123.955 24.5925C123.492 24.7489 123.084 25.0354 122.78 25.4178C122.55 24.9571 122.19 24.5735 121.745 24.3136C121.301 24.0538 120.79 23.9291 120.276 23.9546C119.761 23.9803 119.266 24.155 118.849 24.4578C118.432 24.7604 118.113 25.1779 117.93 25.6591C117.638 25.3517 117.274 25.1226 116.87 24.993C116.467 24.8634 116.037 24.8373 115.621 24.9173C115.205 24.9973 114.816 25.1805 114.489 25.4505C114.163 25.7204 113.909 26.0681 113.752 26.4617C113.794 25.8583 113.662 25.2557 113.373 24.7247C113.083 24.1936 112.648 23.7564 112.119 23.4641C111.589 23.172 110.987 23.0372 110.384 23.0754C109.78 23.1137 109.2 23.3237 108.712 23.6804C108.445 23.0633 107.995 22.5425 107.424 22.1877C106.852 21.8329 106.186 21.6611 105.515 21.6952C104.843 21.7293 104.197 21.9677 103.665 22.3785C103.132 22.7894 102.738 23.353 102.535 23.9941C101.982 23.6601 101.341 23.5033 100.697 23.5448C100.053 23.5863 99.4367 23.8242 98.9318 24.2263C98.427 24.6285 98.0574 25.1757 97.873 25.7943C97.6886 26.4128 97.6982 27.0731 97.9003 27.686C97.2543 27.7591 96.6465 28.0297 96.1596 28.4608C95.6728 28.8919 95.3308 29.4625 95.18 30.0951C95.0291 30.7275 95.077 31.3911 95.317 31.9955C95.5571 32.5998 95.9776 33.1154 96.5211 33.4721C96.0121 33.8844 95.6434 34.4443 95.4663 35.0749C95.289 35.7054 95.3118 36.3755 95.5317 36.9924C95.7515 37.6095 96.1574 38.143 96.6933 38.5196C97.2293 38.8962 97.869 39.0969 98.5239 39.0944C98.3925 39.7236 98.4562 40.3779 98.7068 40.9697C98.9572 41.5616 99.3824 42.0629 99.9255 42.4066C100.469 42.7504 101.104 42.92 101.746 42.893C102.388 42.8659 103.007 42.6435 103.519 42.2554C103.722 42.776 104.063 43.2311 104.506 43.5718C104.948 43.9124 105.476 44.1256 106.031 44.1884C105.929 44.5487 105.908 44.9273 105.971 45.2965C106.033 45.6658 106.177 46.0165 106.391 46.3234C106.606 46.6303 106.886 46.8857 107.211 47.0712C107.536 47.2564 107.899 47.3672 108.272 47.3951C108.071 47.8218 107.993 48.2964 108.047 48.7653C108.101 49.2341 108.286 49.6783 108.58 50.0475C108.874 50.4168 109.265 50.6964 109.71 50.8545C110.155 51.0126 110.635 51.0431 111.096 50.9422C111.04 51.4114 111.118 51.8867 111.319 52.3141C111.52 52.7416 111.837 53.104 112.234 53.3603C112.63 53.6167 113.091 53.7566 113.563 53.7643C114.036 53.7719 114.501 53.647 114.906 53.4035C114.992 53.885 115.216 54.3311 115.55 54.6881C115.884 55.0451 116.315 55.2976 116.79 55.4149C117.264 55.5324 117.763 55.5097 118.225 55.3498C118.687 55.1898 119.093 54.8993 119.394 54.5135C119.698 54.9499 120.093 55.3156 120.551 55.5862C121.009 55.8568 121.519 56.0259 122.048 56.0819C122.856 54.6217 123.404 53.0315 123.665 51.3829C123.933 49.7044 123.62 47.9844 122.776 46.5087C119.18 45.3263 120.797 41.1035 123.234 42.7444C124.393 43.5407 124.832 43.4899 124.923 42.7203C124.93 42.4979 124.997 42.2816 125.117 42.0941C125.237 41.9067 125.405 41.7553 125.604 41.656C125.819 42.1086 126.162 42.4876 126.592 42.7454C127.02 43.0033 127.517 43.1284 128.017 43.1053C128.518 43.0821 129 42.9115 129.403 42.615C129.807 42.3186 130.114 41.9094 130.285 41.4388C130.519 41.6857 130.8 41.8832 131.111 42.0196C131.422 42.1561 131.757 42.2286 132.096 42.2332C132.437 42.2377 132.773 42.174 133.088 42.0458C133.403 41.9176 133.689 41.7278 133.929 41.4871C134.526 42.8935 134.979 44.3569 135.28 45.8546C135.642 45.6505 135.95 45.3606 136.173 45.0102C136.398 44.6598 136.532 44.2598 136.565 43.8452C136.599 43.4306 136.53 43.0141 136.365 42.6325C136.2 42.2507 135.943 41.9155 135.618 41.656C135.981 41.4717 136.296 41.2054 136.539 40.878C136.781 40.5507 136.945 40.1714 137.015 39.77Z" fill="#FF9838"/>
<path d="M189.715 32.8689C189.552 31.8906 189.104 30.9824 188.426 30.2592C187.746 29.5359 186.868 29.0301 185.903 28.8057C184.937 28.5812 183.926 28.6482 182.999 28.9982C182.07 29.3482 181.268 29.9654 180.69 30.772C180.113 31.5784 179.788 32.5379 179.756 33.529C179.725 34.5201 179.988 35.4984 180.512 36.3402C181.037 37.1819 181.799 37.8493 182.702 38.2579C183.606 38.6666 184.61 38.7981 185.588 38.636C186.899 38.4168 188.07 37.6866 188.843 36.6055C189.617 35.5243 189.93 34.1805 189.715 32.8689Z" fill="#E9E9E9"/>
<path d="M39.9146 145.364L28.5977 149.007L33.2738 176.613L39.9146 145.364Z" fill="#E9E9E9"/>
<path d="M186.844 109.728L186.836 109.707L186.844 109.728Z" fill="#E9E9E9"/>
<path d="M197.075 97.6337L190.584 103.594C192.861 104.076 195.073 104.829 197.171 105.838C198.06 106.216 198.877 106.747 199.584 107.406C200.574 108.54 195.266 106.924 192.659 106.634H192.635C193.162 106.912 193.642 107.27 194.059 107.696C194.915 108.675 188.368 106.459 187.785 106.875C190.294 108.01 194.179 110.157 195.12 111.828C196.23 113.831 190.536 109.849 186.844 109.728C189.184 110.814 191.742 112.335 192.659 114.024C193.914 116.31 189.377 112.119 183.972 111.949H183.948C189.112 115.086 191.525 117.664 184.19 114.483C182.845 113.881 181.41 113.506 179.943 113.373L165.199 126.855L208.73 125.166L215.124 96.9822L197.075 97.6337Z" fill="#E9E9E9"/>
<path d="M236.266 96.0895L208.758 125.118L219.665 77.0992L247.173 48.0708L236.266 96.0895Z" stroke="black" stroke-width="0.9525" stroke-linejoin="round"/>
<path d="M197.073 97.6339L190.582 103.594C192.859 104.076 195.071 104.829 197.17 105.838C198.059 106.217 198.875 106.748 199.583 107.407C200.572 108.541 195.265 106.924 192.657 106.634H192.633C193.16 106.912 193.64 107.27 194.057 107.696C194.913 108.675 188.366 106.459 187.783 106.876C190.292 108.01 194.177 110.157 195.118 111.829C196.228 113.832 190.534 109.849 186.842 109.728C189.182 110.814 191.74 112.335 192.657 114.025C193.912 116.311 189.376 112.12 183.97 111.949H183.946C189.11 115.086 191.523 117.664 184.188 114.483C182.843 113.881 181.408 113.506 179.941 113.373L165.197 126.855L208.728 125.166L215.122 96.9824L197.073 97.6339Z" stroke="black" stroke-width="0.9525" stroke-linejoin="round"/>
<path d="M137.013 39.77C137.116 39.1855 137.007 38.5834 136.706 38.0715C136.406 37.5597 135.932 37.1715 135.372 36.976C135.733 36.6427 135.988 36.2111 136.108 35.7344C136.227 35.2577 136.204 34.7567 136.042 34.2928C135.88 33.829 135.586 33.4225 135.197 33.1232C134.807 32.824 134.339 32.6451 133.848 32.6085C134.048 32.1832 134.126 31.7108 134.073 31.2438C134.021 30.7768 133.839 30.3336 133.55 29.9635C133.26 29.5934 132.874 29.3108 132.434 29.1474C131.993 28.9838 131.515 28.9457 131.054 29.0373C131.114 28.569 131.04 28.0934 130.842 27.6648C130.644 27.2362 130.33 26.8717 129.935 26.6127C129.54 26.3538 129.081 26.2109 128.61 26.2001C128.137 26.1893 127.672 26.3112 127.266 26.5519C127.18 26.0709 126.957 25.6249 126.624 25.2674C126.291 24.9099 125.862 24.6562 125.388 24.5364C124.914 24.4166 124.416 24.4362 123.953 24.5925C123.49 24.7489 123.082 25.0354 122.778 25.4178C122.548 24.9571 122.188 24.5735 121.744 24.3136C121.299 24.0538 120.788 23.9291 120.274 23.9546C119.76 23.9803 119.264 24.155 118.847 24.4578C118.43 24.7604 118.111 25.1779 117.928 25.6591C117.636 25.3517 117.272 25.1226 116.868 24.993C116.465 24.8634 116.036 24.8373 115.619 24.9173C115.203 24.9973 114.814 25.1805 114.488 25.4505C114.161 25.7204 113.908 26.0681 113.751 26.4617C113.792 25.8583 113.66 25.2557 113.371 24.7247C113.081 24.1936 112.646 23.7564 112.117 23.4641C111.587 23.172 110.985 23.0372 110.382 23.0754C109.778 23.1137 109.198 23.3237 108.71 23.6804C108.443 23.0633 107.993 22.5425 107.422 22.1877C106.85 21.8329 106.184 21.6611 105.513 21.6952C104.841 21.7293 104.195 21.9677 103.663 22.3785C103.13 22.7894 102.736 23.353 102.533 23.9941C101.98 23.6601 101.339 23.5033 100.695 23.5448C100.051 23.5863 99.4347 23.8242 98.9299 24.2263C98.4251 24.6285 98.0555 25.1757 97.8711 25.7943C97.6867 26.4128 97.6962 27.0731 97.8984 27.686C97.2523 27.7591 96.6445 28.0297 96.1576 28.4608C95.6708 28.8919 95.3288 29.4625 95.1781 30.0951C95.0272 30.7275 95.0751 31.3911 95.3151 31.9955C95.5551 32.5998 95.9756 33.1154 96.5192 33.4721C96.0102 33.8844 95.6415 34.4443 95.4643 35.0749C95.287 35.7054 95.3099 36.3755 95.5297 36.9924C95.7496 37.6095 96.1554 38.1431 96.6914 38.5196C97.2273 38.8962 97.867 39.0969 98.522 39.0944C98.3905 39.7236 98.4543 40.3779 98.7048 40.9697C98.9553 41.5616 99.3805 42.0629 99.9235 42.4066C100.467 42.7504 101.102 42.92 101.744 42.893C102.386 42.8659 103.005 42.6435 103.517 42.2554C103.72 42.776 104.061 43.231 104.504 43.5718C104.947 43.9124 105.474 44.1256 106.029 44.1884C105.927 44.5487 105.906 44.9273 105.969 45.2965C106.031 45.6658 106.175 46.0165 106.389 46.3234C106.604 46.6303 106.884 46.8857 107.209 47.0712C107.535 47.2564 107.897 47.3672 108.27 47.3951C108.069 47.8218 107.991 48.2964 108.045 48.7653C108.099 49.2341 108.284 49.6783 108.578 50.0475C108.872 50.4168 109.263 50.6964 109.708 50.8545C110.153 51.0126 110.633 51.0431 111.094 50.9422C111.038 51.4114 111.116 51.8867 111.317 52.3141C111.518 52.7416 111.835 53.104 112.232 53.3603C112.628 53.6167 113.089 53.7566 113.561 53.7643C114.034 53.7719 114.499 53.647 114.904 53.4035C114.99 53.885 115.214 54.3311 115.548 54.6881C115.882 55.0451 116.313 55.2976 116.788 55.4149C117.262 55.5324 117.761 55.5097 118.223 55.3498C118.685 55.1898 119.091 54.8993 119.392 54.5135C119.696 54.9499 120.091 55.3156 120.549 55.5862C121.007 55.8568 121.517 56.0259 122.046 56.0819C122.855 54.6217 123.402 53.0315 123.663 51.3829C123.931 49.7044 123.618 47.9844 122.774 46.5087C119.179 45.3263 120.795 41.1035 123.232 42.7444C124.391 43.5407 124.83 43.4899 124.921 42.7203C124.928 42.4979 124.995 42.2816 125.115 42.0941C125.235 41.9067 125.403 41.7553 125.602 41.656C125.817 42.1086 126.16 42.4876 126.59 42.7454C127.018 43.0033 127.515 43.1284 128.015 43.1053C128.516 43.0821 128.998 42.9115 129.401 42.615C129.805 42.3186 130.112 41.9094 130.283 41.4388C130.517 41.6857 130.798 41.8832 131.109 42.0196C131.42 42.1561 131.755 42.2286 132.094 42.2332C132.435 42.2377 132.771 42.174 133.086 42.0458C133.401 41.9176 133.687 41.7278 133.927 41.4871C134.524 42.8935 134.977 44.3569 135.278 45.8546C135.64 45.6505 135.948 45.3606 136.171 45.0102C136.396 44.6598 136.531 44.2598 136.564 43.8452C136.597 43.4306 136.528 43.0141 136.363 42.6325C136.198 42.2507 135.941 41.9155 135.616 41.656C135.979 41.4717 136.294 41.2054 136.537 40.878C136.779 40.5507 136.943 40.1714 137.013 39.77Z" stroke="black" stroke-width="0.9525" stroke-linejoin="round"/>
<path d="M134.818 54.7065L206.846 42.5933" stroke="black" stroke-width="0.9525" stroke-linecap="round" stroke-linejoin="round"/>
<path d="M16.6289 74.5414L121.594 56.9265" stroke="black" stroke-width="0.9525" stroke-linecap="round" stroke-linejoin="round"/>
<path d="M127.482 66.0479L149.079 85.4484" stroke="black" stroke-width="0.9525" stroke-linecap="round" stroke-linejoin="round"/>
<path d="M149.176 87.5716C149.465 86.4858 149.467 85.7111 149.079 85.4482C148.719 85.2043 148.063 85.4202 147.245 86.0032C146.02 86.9708 144.911 88.0791 143.943 89.3052" stroke="black" stroke-width="0.9525" stroke-linecap="round" stroke-linejoin="round"/>
<path d="M58.9284 116.166C50.7724 109.675 50.0968 109.482 43.6299 102.412C29.9724 104.342 14.9406 108.903 8.57031 111.919C18.2938 115.593 28.7081 117.076 39.0706 116.262L50.1463 126.228" stroke="black" stroke-width="0.9525" stroke-linecap="round" stroke-linejoin="round"/>
<path d="M120.268 66.0959L143.022 86.5099" stroke="black" stroke-width="0.9525" stroke-linecap="round" stroke-linejoin="round"/>
<path d="M131.969 102.942L117.25 90.4673L126.164 104.338" stroke="black" stroke-width="0.9525" stroke-linecap="round" stroke-linejoin="round"/>
<path d="M184.502 105.664C185.391 105.857 193.532 108.702 195.24 111.745C196.383 113.77 190.607 109.742 186.867 109.621" stroke="black" stroke-width="0.9525" stroke-linecap="round" stroke-linejoin="round"/>
<path d="M183.705 108.323C185.973 109.144 191.349 111.415 192.754 113.97C194.024 116.289 189.452 112.04 183.971 111.871" stroke="black" stroke-width="0.9525" stroke-linecap="round" stroke-linejoin="round"/>
<path d="M183.077 111.364C188.82 114.718 191.984 117.823 184.187 114.452C180.158 112.711 150.786 111.822 150.786 111.822C148.208 111.556 145.746 110.614 143.648 109.093L132.018 100.261" stroke="black" stroke-width="0.9525" stroke-linecap="round" stroke-linejoin="round"/>
<path d="M141.188 87.0652L153.011 97.5617C153.011 97.5617 182.643 103.112 184.911 103.759C187.179 104.407 192.611 105.784 194.201 107.596C195.047 108.56 190.391 106.896 187.565 106.751" stroke="black" stroke-width="0.9525" stroke-linecap="round" stroke-linejoin="round"/>
<path d="M143.119 88.6334C143.408 87.5476 143.41 86.7729 143.022 86.51C142.662 86.2661 142.006 86.4833 141.189 87.065C137.85 89.4411 132.888 96.8071 131.85 100.843C131.596 101.834 131.642 102.727 131.971 102.943C132.352 103.197 133.443 102.894 134.257 101.977" stroke="black" stroke-width="0.9525" stroke-linecap="round" stroke-linejoin="round"/>
<path d="M95.0996 110.809C100.925 111.054 106.656 109.272 111.315 105.766" stroke="black" stroke-width="0.9525" stroke-linecap="round" stroke-linejoin="round"/>
<path d="M125.963 104.704L128.545 100.047" stroke="black" stroke-width="0.9525" stroke-linecap="round" stroke-linejoin="round"/>
<path d="M127.097 63.754C125.504 66.0705 122.584 65.057 118.555 61.1721" stroke="black" stroke-width="0.9525" stroke-linecap="round" stroke-linejoin="round"/>
<path d="M101.248 140.154L120.001 119.279L99.3457 152.916" stroke="black" stroke-width="0.9525" stroke-linecap="round" stroke-linejoin="round"/>
<path d="M71.7427 152.119C73.1047 153.342 74.6944 154.286 76.421 154.894C78.1475 155.503 79.9771 155.766 81.8051 155.666C83.6333 155.569 85.424 155.11 87.075 154.32C88.7261 153.529 90.2052 152.42 91.4277 151.058L101.245 140.153L97.3636 166.061L81.3413 183.918C85.3615 190.976 91.5578 196.545 99.0045 199.793L115.968 180.899C118.479 178.106 120.254 174.73 121.132 171.078C124.825 155.584 123.569 128.223 125.958 104.696C116.354 102.911 112.807 100.739 105.495 94.9719C100.771 98.4251 90.2262 100.988 79.6294 127.338L63.828 113.125C56.5382 116.834 50.8876 123.121 47.9746 130.764L71.7427 152.119Z" stroke="black" stroke-width="0.9525" stroke-linecap="round" stroke-linejoin="round"/>
<path d="M128.269 56.2852C127.63 56.0469 127.007 55.7695 126.402 55.4546L127.628 58.1216" stroke="black" stroke-width="0.9525" stroke-linecap="round" stroke-linejoin="round"/>
<path d="M105.494 94.9556C106.521 91.7289 107.216 88.4059 107.569 85.0381C108.184 79.8568 109.688 74.8202 112.014 70.1499C114.288 65.3734 119.507 60.9691 122.174 55.8891C122.974 54.4935 123.481 52.9502 123.667 51.3527C123.936 49.6741 123.622 47.954 122.778 46.4784C119.182 45.296 120.807 41.0631 123.236 42.7141C124.398 43.5053 124.853 43.4621 124.925 42.69C124.991 42.284 125.072 41.8976 125.168 41.5317M129.269 74.1796C127.491 69.0488 126.015 61.204 128.264 56.2853C137.4 59.6369 136.627 47.7916 133.95 41.5317L129.269 74.1796Z" stroke="black" stroke-width="0.9525" stroke-linecap="round" stroke-linejoin="round"/>
<path d="M86.6777 177.987C91.0421 184.786 97.2535 190.202 104.585 193.599" stroke="black" stroke-width="0.9525" stroke-linecap="round" stroke-linejoin="round"/>
<path d="M53.2344 135.422C57.2882 128.056 62.3555 122.005 69.0154 117.807" stroke="black" stroke-width="0.9525" stroke-linecap="round" stroke-linejoin="round"/>
<path d="M84.2166 188.29C79.1188 194.513 74.5582 199.398 69.5938 204.578C68.2666 212.42 68.894 230.421 71.4277 238.794C78.1587 227.598 80.5971 220.48 84.0007 208.949L94.3283 197.464" stroke="black" stroke-width="0.9525" stroke-linecap="round" stroke-linejoin="round"/>
<path d="M39.5996 116.745C41.8775 113.087 44.6734 109.779 47.9003 106.924" stroke="black" stroke-width="0.9525" stroke-linecap="round" stroke-linejoin="round"/>
<path d="M192.754 106.538C195.384 106.803 200.736 108.443 199.751 107.31C199.036 106.644 198.212 106.105 197.314 105.717C193.911 104.054 190.654 103.522 187.035 102.532L158.968 95.7275L147.256 85.9917" stroke="black" stroke-width="0.9525" stroke-linecap="round" stroke-linejoin="round"/>
<path d="M102.991 109.868L81.3465 141.671L60.4258 125.094" stroke="black" stroke-width="0.9525" stroke-linecap="round" stroke-linejoin="round"/>
<path d="M162.157 37.4537C162.32 38.432 162.188 39.4364 161.779 40.34C161.371 41.2435 160.703 42.0056 159.861 42.5299C159.02 43.0541 158.041 43.317 157.051 43.2853C156.059 43.2535 155.1 42.9287 154.294 42.3516C153.487 41.7746 152.87 40.9714 152.519 40.0435C152.17 39.1158 152.103 38.105 152.328 37.139C152.551 36.1732 153.058 35.2955 153.78 34.617C154.504 33.9386 155.412 33.4898 156.39 33.3275C157.702 33.1106 159.047 33.4234 160.128 34.197C161.209 34.9707 161.939 36.142 162.157 37.4537Z" stroke="black" stroke-width="0.9525" stroke-linecap="round" stroke-linejoin="round"/>
<path d="M175.816 35.1854C175.978 36.1637 175.846 37.1681 175.437 38.0717C175.029 38.9752 174.361 39.7373 173.519 40.2616C172.679 40.7859 171.7 41.0487 170.709 41.017C169.717 40.9852 168.758 40.6603 167.952 40.0833C167.145 39.5063 166.528 38.7031 166.178 37.7752C165.828 36.8475 165.761 35.8367 165.986 34.8707C166.209 33.9049 166.716 33.0272 167.439 32.3487C168.163 31.6703 169.071 31.2215 170.049 31.0592C171.36 30.8423 172.704 31.1549 173.786 31.9287C174.867 32.7024 175.597 33.8738 175.816 35.1854Z" stroke="black" stroke-width="0.9525" stroke-linecap="round" stroke-linejoin="round"/>
<path d="M189.714 32.869C189.877 33.8472 189.744 34.8517 189.336 35.7553C188.928 36.6588 188.26 37.4209 187.418 37.9451C186.577 38.4694 185.598 38.7322 184.607 38.7005C183.615 38.6688 182.657 38.3438 181.85 37.7668C181.044 37.1897 180.427 36.3866 180.076 35.4587C179.727 34.531 179.659 33.5202 179.884 32.5542C180.108 31.5883 180.614 30.7107 181.337 30.0323C182.061 29.3538 182.969 28.905 183.947 28.7427C185.259 28.5254 186.604 28.8381 187.685 29.6118C188.767 30.3856 189.497 31.5572 189.714 32.869Z" stroke="black" stroke-width="0.9525" stroke-linecap="round" stroke-linejoin="round"/>
<path d="M46.0907 15.2058L36.873 28.1878" stroke="black" stroke-width="0.9525" stroke-linecap="round" stroke-linejoin="round"/>
<path d="M47.9734 26.3055L35.0156 17.0879" stroke="black" stroke-width="0.9525" stroke-linecap="round" stroke-linejoin="round"/>
<path d="M9.48651 155.136L9.19695 155.232L18.1009 163.123L6.34961 176.032L12.6475 181.655L24.3988 168.721L33.2774 176.613L39.9144 145.364L9.48651 155.136Z" stroke="black" stroke-width="0.9525" stroke-linecap="round" stroke-linejoin="round"/>
<path d="M164.884 172.944L146.207 167.152L161.916 156.246" stroke="black" stroke-width="0.9525" stroke-linecap="round" stroke-linejoin="round"/>
<path d="M180.23 170.482L195.818 158.948L177.262 153.76" stroke="black" stroke-width="0.9525" stroke-linecap="round" stroke-linejoin="round"/>
<path d="M174.391 146.883L167.562 180.134" stroke="black" stroke-width="0.9525" stroke-linecap="round" stroke-linejoin="round"/>
<path d="M23.3184 115.719L35.8361 192.899C36.2834 195.532 37.2451 198.05 38.6661 200.31C40.0872 202.57 41.9397 204.529 44.1179 206.073C46.2961 207.616 48.7572 208.716 51.3606 209.309C53.9641 209.901 56.6587 209.974 59.2905 209.525L69.3264 207.837" stroke="black" stroke-width="0.9525" stroke-linecap="round" stroke-linejoin="round"/>
<path d="M218.549 114.877L226.004 160.83C226.454 163.462 226.38 166.157 225.788 168.76C225.195 171.364 224.096 173.825 222.553 176.003C221.008 178.181 219.05 180.034 216.789 181.455C214.529 182.876 212.011 183.838 209.379 184.285L87.8535 204.722" stroke="black" stroke-width="0.9525" stroke-linecap="round" stroke-linejoin="round"/>
<path d="M95.5599 34.8955L32.361 45.5132C29.7288 45.9606 27.2105 46.9223 24.9502 48.3433C22.6898 49.7643 20.7318 51.6168 19.1877 53.7951C17.6437 55.9733 16.5441 58.4344 15.9517 61.0378C15.3594 63.6412 15.2859 66.3359 15.7354 68.9676L21.9259 107.136" stroke="black" stroke-width="0.9525" stroke-linecap="round" stroke-linejoin="round"/>
<path d="M131.078 28.9283L182.451 20.2972C185.082 19.8476 187.777 19.9212 190.381 20.5135C192.984 21.1058 195.446 22.2055 197.624 23.7495C199.802 25.2935 201.655 27.2516 203.076 29.5119C204.497 31.7723 205.458 34.2906 205.905 36.9228L215.432 95.6508" stroke="black" stroke-width="0.9525" stroke-linecap="round" stroke-linejoin="round"/>
<path d="M74.4434 199.462C77.1012 203.114 80.3273 206.315 83.9988 208.945" stroke="black" stroke-width="0.9525" stroke-linecap="round" stroke-linejoin="round"/>
</svg>
